<svg width="921" height="516" viewBox="0 0 921 516" fill="none" xmlns="http://www.w3.org/2000/svg">
<g clip-path="url(#clip0_617_2)">
<path d="M193.679 513.126H53.0789C53.0789 513.126 50.2289 471.326 67.0909 470.851C83.9529 470.376 82.0529 489.376 103.191 463.251C124.329 437.126 149.978 438.551 153.303 453.989C156.628 469.427 146.891 481.776 164.703 477.976C182.515 474.176 208.166 484.151 193.679 513.126Z" fill="#E6E6E6"/>
<path d="M121.006 513.136L120.531 513.117C121.638 485.597 127.401 467.917 132.042 457.927C137.08 447.083 141.935 442.693 141.984 442.65L142.3 443.005C142.252 443.048 137.454 447.394 132.456 458.165C127.841 468.109 122.109 485.719 121.006 513.136Z" fill="white"/>
<path d="M171.892 513.192L171.436 513.059C174.972 501.395 181.346 490.791 189.987 482.196L190.306 482.548C181.729 491.083 175.402 501.612 171.892 513.192Z" fill="white"/>
<path d="M75.2247 513.158L74.7537 513.093C76.2868 502.776 74.6648 492.235 70.1007 482.855C68.2298 478.921 65.753 475.305 62.7607 472.139L63.0898 471.796C66.1225 475.001 68.6334 478.661 70.5307 482.644C75.1359 492.11 76.7722 502.746 75.2247 513.158Z" fill="white"/>
<path d="M212.76 513.761H37.9151L37.8751 513.168C37.7751 511.695 35.5441 476.941 46.8051 464.54C47.9224 463.229 49.3015 462.168 50.8538 461.423C52.4061 460.678 54.0971 460.266 55.8181 460.214C63.1581 460.005 67.7711 462.755 71.4921 464.961C78.5051 469.121 83.1371 471.87 99.9821 451.051C118.229 428.498 137.918 423.646 149.236 426.344C156.549 428.088 161.589 433.014 163.064 439.863C164.464 446.348 164.016 452.442 163.658 457.339C163.275 462.578 162.973 466.714 165.125 468.59C166.925 470.155 170.506 470.298 176.406 469.039C188.406 466.479 205.154 468.668 213.559 479.529C218.081 485.372 221.644 495.993 212.936 513.41L212.76 513.761ZM39.1081 512.49H211.973C218.462 499.325 218.665 488.203 212.554 480.308C204.843 470.345 188.666 467.723 176.671 470.282C170.26 471.65 166.441 471.424 164.29 469.55C161.659 467.258 161.982 462.84 162.39 457.25C162.742 452.435 163.179 446.441 161.821 440.134C160.453 433.783 155.758 429.209 148.94 427.584C137.983 424.97 118.84 429.76 100.969 451.853C83.4351 473.525 78.1521 470.393 70.8431 466.053C67.0761 463.819 62.8001 461.286 55.8531 461.483C54.3037 461.533 52.7819 461.907 51.3855 462.58C49.9891 463.253 48.7491 464.211 47.7451 465.392C37.6271 476.538 38.8611 507.791 39.1091 512.49H39.1081Z" fill="#2F2E41"/>
<path d="M784.06 514.467H611.844L611.811 513.501L603.588 278.322H792.315L784.06 514.467ZM613.776 512.467H782.128L790.245 280.322H605.658L613.776 512.467Z" fill="#3F3D56"/>
<path d="M652.925 321.896H639.826V483.993H652.925V321.896Z" fill="#3F3D56"/>
<path d="M704.501 321.896H691.402V483.993H704.501V321.896Z" fill="#3F3D56"/>
<path d="M756.077 321.896H742.978V483.993H756.077V321.896Z" fill="#3F3D56"/>
<path d="M901.75 347.382L900.904 346.848L686.99 211.665L705.545 182.303L706.391 182.837L920.304 318.02L901.75 347.382ZM689.749 211.043L901.126 344.622L917.544 318.643L706.168 185.062L689.749 211.043Z" fill="#3F3D56"/>
<path d="M850.102 200.77C843.884 196.835 836.668 194.766 829.309 194.809C821.951 194.852 814.76 197.006 808.588 201.013C802.417 205.021 797.525 210.715 794.493 217.42C791.461 224.125 790.416 231.559 791.482 238.84L801.682 245.286C799.119 239.334 798.528 232.717 799.997 226.406C801.466 220.094 804.917 214.418 809.845 210.209C814.772 206 820.918 203.48 827.382 203.017C833.846 202.553 840.288 204.172 845.766 207.635C851.244 211.098 855.469 216.223 857.823 222.261C860.177 228.299 860.536 234.932 858.847 241.188C857.159 247.445 853.512 252.997 848.44 257.031C843.368 261.065 837.138 263.369 830.662 263.607L840.862 270.053C847.897 267.893 854.164 263.761 858.92 258.146C863.677 252.531 866.723 245.67 867.696 238.376C868.67 231.082 867.531 223.662 864.414 216.996C861.297 210.331 856.333 204.699 850.111 200.77H850.102Z" fill="#3F3D56"/>
<path d="M909 513.086H0V515.086H909V513.086Z" fill="#3F3D56"/>
<path d="M397.037 499.44H382.473L375.541 443.266H397.041L397.037 499.44Z" fill="#FEB8B8"/>
<path d="M354.386 512.962H400.157V495.278H371.825C367.2 495.278 362.764 497.115 359.494 500.385C356.224 503.656 354.386 508.092 354.386 512.717V512.962Z" fill="#2F2E41"/>
<path d="M391.918 412.394L401.964 422.939L447.416 389.212L432.59 373.649L391.918 412.394Z" fill="#FEB8B8"/>
<path d="M412.314 427.771L392.765 407.258L379.961 419.46L411.543 452.599L411.721 452.43C413.379 450.849 414.709 448.958 415.637 446.864C416.564 444.769 417.069 442.513 417.124 440.223C417.179 437.933 416.783 435.655 415.957 433.518C415.132 431.382 413.894 429.429 412.314 427.771Z" fill="#2F2E41"/>
<path d="M290.548 258.497C289.626 257.014 289.041 255.347 288.833 253.613C288.625 251.88 288.8 250.122 289.345 248.463C289.889 246.804 290.791 245.285 291.987 244.012C293.182 242.739 294.642 241.744 296.263 241.097L353.442 95.3696L375.73 108.715L312.212 248.515C313.12 251.312 312.97 254.344 311.791 257.038C310.612 259.732 308.485 261.899 305.815 263.13C303.144 264.36 300.115 264.568 297.301 263.714C294.487 262.86 292.084 261.004 290.548 258.497Z" fill="#FEB8B8"/>
<path d="M507.58 268.941C505.838 268.817 504.144 268.312 502.618 267.462C501.092 266.612 499.772 265.437 498.749 264.021C497.726 262.605 497.026 260.983 496.699 259.267C496.371 257.551 496.424 255.785 496.853 254.091L412.499 122.222L436.39 112.022L512.226 245.545C515.027 246.451 517.397 248.353 518.888 250.891C520.378 253.428 520.885 256.425 520.312 259.312C519.739 262.199 518.126 264.775 515.779 266.551C513.431 268.327 510.514 269.179 507.58 268.945V268.941Z" fill="#FEB8B8"/>
<path d="M354.005 243.905L368.936 465.818L404.618 462.67L411.964 298.948L431.904 369.262L474.932 372.41L457.901 233.41L354.005 243.905Z" fill="#2F2E41"/>
<path d="M438.201 358.768L431.901 369.263L387.828 399.697L419.312 416.489C419.312 416.489 480.181 382.906 474.934 372.411L438.201 358.768Z" fill="#2F2E41"/>
<path d="M322.759 154.121L335.18 119.121C337.944 111.333 342.224 104.171 347.774 98.0483C353.324 91.9259 360.033 86.965 367.512 83.4525C384.324 77.259 402.609 76.2581 419.996 80.5795L424.516 81.7016C436.569 84.623 447.862 90.0772 457.644 97.7016C465.298 103.736 472.184 111.376 472.797 119.594C472.8 119.611 472.805 119.628 472.812 119.645C474.932 128.937 475.981 177.212 475.981 177.212H457.281L460.239 242.279L460 241.808C460 241.808 352.144 262.219 352.144 251.724V184.556L349.933 160.236L322.759 154.121Z" fill="#CCCCCC"/>
<path d="M423.432 71.4816C439.939 71.4816 453.321 58.0999 453.321 41.5926C453.321 25.0854 439.939 11.7036 423.432 11.7036C406.925 11.7036 393.543 25.0854 393.543 41.5926C393.543 58.0999 406.925 71.4816 423.432 71.4816Z" fill="#FEB8B8"/>
<path d="M427.909 28.1886L451.117 29.1186C454.037 29.1096 457.225 29.0066 459.449 27.1186C462.799 24.2696 462.238 18.8936 460.444 14.8776C455.444 3.69557 444.291 -0.310426 432.044 0.0185744C419.797 0.347574 406.964 4.49856 400.369 14.8186C393.774 25.1386 391.992 38.1706 394.476 50.1626C397.348 44.0648 401.769 38.8269 407.298 34.9718C412.827 31.1167 419.27 28.7791 425.984 28.1926L427.909 28.1886Z" fill="#2F2E41"/>
<path d="M565.723 320.545L481.722 261.672C480.941 261.123 480.41 260.287 480.245 259.347C480.08 258.407 480.294 257.44 480.84 256.657L546.771 162.584C547.32 161.804 548.156 161.273 549.096 161.108C550.036 160.942 551.003 161.156 551.786 161.702L635.787 220.575C636.568 221.124 637.099 221.96 637.264 222.9C637.43 223.84 637.216 224.807 636.669 225.59L570.74 319.66C570.191 320.442 569.355 320.973 568.414 321.139C567.474 321.305 566.506 321.091 565.723 320.545Z" fill="#B71C50"/>
<path d="M584.614 256.664L535.323 222.118C534.753 221.719 534.268 221.211 533.894 220.623C533.52 220.036 533.266 219.381 533.145 218.696C533.024 218.01 533.04 217.307 533.191 216.628C533.342 215.948 533.625 215.305 534.025 214.735C534.424 214.165 534.932 213.679 535.519 213.306C536.107 212.932 536.762 212.678 537.447 212.557C538.133 212.436 538.836 212.452 539.515 212.603C540.195 212.754 540.838 213.037 541.408 213.437L590.698 247.982C591.85 248.789 592.633 250.02 592.877 251.405C593.12 252.789 592.804 254.214 591.997 255.365C591.19 256.516 589.959 257.3 588.574 257.544C587.19 257.787 585.765 257.471 584.614 256.664Z" fill="white"/>
<path d="M573.302 272.805L524.011 238.259C523.441 237.86 522.954 237.352 522.58 236.765C522.205 236.177 521.95 235.522 521.83 234.836C521.709 234.15 521.724 233.447 521.875 232.767C522.026 232.087 522.309 231.444 522.709 230.873C523.109 230.303 523.617 229.817 524.204 229.443C524.792 229.069 525.448 228.815 526.134 228.695C526.82 228.574 527.523 228.59 528.202 228.742C528.882 228.893 529.526 229.177 530.096 229.578L579.386 264.123C580.536 264.931 581.318 266.161 581.561 267.545C581.804 268.929 581.487 270.353 580.681 271.503C579.875 272.654 578.644 273.437 577.261 273.681C575.877 273.925 574.453 273.61 573.302 272.805Z" fill="white"/>
<path d="M561.868 289.119L512.577 254.573C512.007 254.174 511.522 253.666 511.148 253.079C510.774 252.492 510.52 251.837 510.399 251.151C510.278 250.465 510.294 249.763 510.445 249.083C510.596 248.404 510.879 247.761 511.279 247.191C511.678 246.621 512.186 246.135 512.773 245.761C513.361 245.387 514.016 245.133 514.701 245.012C515.387 244.892 516.089 244.907 516.769 245.058C517.448 245.209 518.092 245.493 518.662 245.892L567.952 280.438C569.104 281.245 569.887 282.476 570.131 283.86C570.374 285.245 570.058 286.669 569.251 287.821C568.444 288.972 567.213 289.755 565.828 289.999C564.444 290.242 563.019 289.926 561.868 289.119Z" fill="white"/>
<path d="M584.476 224.734L565.384 211.353C564.814 210.954 564.327 210.446 563.953 209.859C563.578 209.272 563.324 208.616 563.203 207.93C563.082 207.244 563.097 206.541 563.248 205.861C563.399 205.182 563.682 204.538 564.082 203.968C564.482 203.397 564.99 202.911 565.578 202.538C566.165 202.164 566.821 201.909 567.507 201.789C568.193 201.669 568.896 201.685 569.576 201.836C570.255 201.988 570.899 202.272 571.469 202.672L590.56 216.052C591.712 216.859 592.495 218.09 592.739 219.475C592.982 220.859 592.666 222.284 591.859 223.435C591.052 224.586 589.821 225.37 588.436 225.614C587.052 225.857 585.627 225.541 584.476 224.734Z" fill="white"/>
</g>
<defs>
<clipPath id="clip0_617_2">
<rect width="920.304" height="515.087" fill="white"/>
</clipPath>
</defs>
</svg>
