<svg width="620" height="563" viewBox="0 0 620 563" fill="none" xmlns="http://www.w3.org/2000/svg">
<g clip-path="url(#clip0_621_2)">
<path d="M314.144 139.849H87.1506C72.3802 139.849 60.4065 151.823 60.4065 166.593V390.695C60.4065 405.466 72.3802 417.44 87.1506 417.44H314.144C328.914 417.44 340.888 405.466 340.888 390.695V166.593C340.888 151.823 328.914 139.849 314.144 139.849Z" fill="#F2F2F2"/>
<path d="M134.818 145.349C116.542 145.349 99.0137 152.609 86.0903 165.533C73.1668 178.456 65.9065 195.984 65.9065 214.261V390.696C65.9065 393.486 66.456 396.248 67.5236 398.826C68.5912 401.403 70.1561 403.745 72.1288 405.718C74.1015 407.69 76.4434 409.255 79.0209 410.323C81.5983 411.39 84.3608 411.94 87.1506 411.94H232.023C259.437 411.94 285.728 401.05 305.113 381.665C324.497 362.281 335.387 335.99 335.387 308.576V166.593C335.387 160.959 333.149 155.555 329.165 151.571C325.181 147.587 319.778 145.349 314.143 145.349H134.818Z" fill="white"/>
<path d="M587.691 48.23H20.9604C20.6952 48.23 20.4409 48.1246 20.2533 47.9371C20.0658 47.7496 19.9604 47.4952 19.9604 47.23C19.9604 46.9648 20.0658 46.7104 20.2533 46.5229C20.4409 46.3353 20.6952 46.23 20.9604 46.23H587.691C587.956 46.23 588.211 46.3353 588.398 46.5229C588.586 46.7104 588.691 46.9648 588.691 47.23C588.691 47.4952 588.586 47.7496 588.398 47.9371C588.211 48.1246 587.956 48.23 587.691 48.23Z" fill="#E6E6E6"/>
<path d="M49.3153 18.2096C53.9857 18.2096 57.7719 14.339 57.7719 9.5645C57.7719 4.78996 53.9857 0.919434 49.3153 0.919434C44.6448 0.919434 40.8586 4.78996 40.8586 9.5645C40.8586 14.339 44.6448 18.2096 49.3153 18.2096Z" fill="#E6E6E6"/>
<path d="M78.5291 18.2096C83.1996 18.2096 86.9857 14.339 86.9857 9.5645C86.9857 4.78996 83.1996 0.919434 78.5291 0.919434C73.8587 0.919434 70.0725 4.78996 70.0725 9.5645C70.0725 14.339 73.8587 18.2096 78.5291 18.2096Z" fill="#E6E6E6"/>
<path d="M107.743 18.2096C112.413 18.2096 116.199 14.339 116.199 9.5645C116.199 4.78996 112.413 0.919434 107.743 0.919434C103.072 0.919434 99.2861 4.78996 99.2861 9.5645C99.2861 14.339 103.072 18.2096 107.743 18.2096Z" fill="#E6E6E6"/>
<path d="M141.054 16.3973C140.921 16.3975 140.789 16.371 140.666 16.3193C140.544 16.2677 140.432 16.1919 140.339 16.0966L134.633 10.2636C134.451 10.0768 134.348 9.82576 134.348 9.56435C134.348 9.30294 134.451 9.05193 134.633 8.86513L140.339 3.03261C140.431 2.93725 140.54 2.86096 140.662 2.80816C140.783 2.75535 140.913 2.72708 141.045 2.72498C141.177 2.72288 141.309 2.74699 141.431 2.7959C141.554 2.84482 141.666 2.91758 141.76 3.00998C141.855 3.10238 141.93 3.21259 141.982 3.33423C142.033 3.45588 142.06 3.58654 142.061 3.71868C142.062 3.85082 142.037 3.98181 141.986 4.10408C141.936 4.22636 141.862 4.33747 141.769 4.43104L136.747 9.56434L141.769 14.6981C141.907 14.8388 142 15.017 142.037 15.2104C142.073 15.4038 142.052 15.6037 141.976 15.7851C141.9 15.9666 141.772 16.1214 141.608 16.2303C141.444 16.3392 141.251 16.3973 141.054 16.3973Z" fill="#E6E6E6"/>
<path d="M150.643 16.3973C150.446 16.3973 150.253 16.3392 150.089 16.2303C149.925 16.1214 149.797 15.9665 149.721 15.7851C149.645 15.6037 149.623 15.4038 149.66 15.2104C149.697 15.017 149.79 14.8388 149.928 14.6981L154.949 9.56434L149.928 4.43104C149.834 4.33747 149.761 4.22634 149.71 4.10407C149.66 3.9818 149.635 3.8508 149.636 3.71866C149.637 3.58652 149.664 3.45586 149.715 3.33422C149.767 3.21257 149.842 3.10237 149.936 3.00997C150.031 2.91757 150.143 2.84481 150.266 2.79589C150.388 2.74697 150.52 2.72288 150.652 2.72498C150.784 2.72708 150.914 2.75535 151.035 2.80816C151.156 2.86096 151.266 2.93724 151.357 3.0326L157.063 8.86512C157.246 9.05192 157.348 9.30293 157.348 9.56434C157.348 9.82574 157.246 10.0768 157.063 10.2636L151.357 16.0965C151.264 16.1919 151.153 16.2677 151.03 16.3193C150.908 16.371 150.776 16.3975 150.643 16.3973Z" fill="#E6E6E6"/>
<path d="M537.153 1.92041H526.543C526.255 1.92032 525.97 1.97692 525.704 2.08695C525.439 2.19697 525.197 2.35828 524.994 2.56166C524.79 2.76504 524.629 3.00649 524.519 3.27223C524.409 3.53798 524.352 3.82279 524.353 4.11041V14.7304C524.352 15.018 524.409 15.3028 524.519 15.5686C524.629 15.8343 524.79 16.0758 524.994 16.2792C525.197 16.4826 525.439 16.6439 525.704 16.7539C525.97 16.8639 526.255 16.9205 526.543 16.9204H537.153C537.735 16.921 538.293 16.6907 538.705 16.2802C539.118 15.8697 539.35 15.3123 539.353 14.7304V4.11041C539.35 3.5285 539.118 2.97116 538.705 2.56062C538.293 2.15009 537.735 1.91985 537.153 1.92041Z" fill="#E6E6E6"/>
<path d="M511.153 1.92041H500.543C500.255 1.92032 499.97 1.97692 499.704 2.08695C499.439 2.19697 499.197 2.35828 498.994 2.56166C498.79 2.76504 498.629 3.00649 498.519 3.27223C498.409 3.53798 498.352 3.82279 498.353 4.11041V14.7304C498.352 15.018 498.409 15.3028 498.519 15.5686C498.629 15.8343 498.79 16.0758 498.994 16.2792C499.197 16.4826 499.439 16.6439 499.704 16.7539C499.97 16.8639 500.255 16.9205 500.543 16.9204H511.153C511.735 16.921 512.293 16.6907 512.705 16.2802C513.118 15.8697 513.35 15.3123 513.353 14.7304V4.11041C513.35 3.5285 513.118 2.97116 512.705 2.56062C512.293 2.15009 511.735 1.91985 511.153 1.92041Z" fill="#E6E6E6"/>
<path d="M561.653 2.42041H551.043C550.755 2.42032 550.47 2.47692 550.204 2.58695C549.939 2.69697 549.697 2.85828 549.494 3.06166C549.29 3.26504 549.129 3.50649 549.019 3.77223C548.909 4.03798 548.852 4.32279 548.853 4.61041V15.2304C548.852 15.518 548.909 15.8028 549.019 16.0686C549.129 16.3343 549.29 16.5758 549.494 16.7792C549.697 16.9826 549.939 17.1439 550.204 17.2539C550.47 17.3639 550.755 17.4205 551.043 17.4204H561.653C562.235 17.421 562.793 17.1907 563.205 16.7802C563.618 16.3697 563.85 15.8123 563.853 15.2304V4.61041C563.85 4.0285 563.618 3.47116 563.205 3.06062C562.793 2.65009 562.235 2.41985 561.653 2.42041Z" fill="#E6E6E6"/>
<path d="M348.877 18H279.877C277.49 18 275.201 17.0518 273.513 15.364C271.825 13.6761 270.877 11.3869 270.877 9C270.877 6.61305 271.825 4.32387 273.513 2.63605C275.201 0.94822 277.49 0 279.877 0H348.877C351.264 0 353.553 0.94822 355.241 2.63605C356.929 4.32387 357.877 6.61305 357.877 9C357.877 11.3869 356.929 13.6761 355.241 15.364C353.553 17.0518 351.264 18 348.877 18Z" fill="#E6E6E6"/>
<path d="M235.268 317.4H81.2752C80.3945 317.4 79.5498 317.05 78.927 316.427C78.3042 315.804 77.9543 314.959 77.9543 314.079C77.9543 313.198 78.3042 312.353 78.927 311.73C79.5498 311.108 80.3945 310.758 81.2752 310.758H235.268C236.149 310.758 236.993 311.108 237.616 311.73C238.239 312.353 238.589 313.198 238.589 314.079C238.589 314.959 238.239 315.804 237.616 316.427C236.993 317.05 236.149 317.4 235.268 317.4Z" fill="#F2F2F2"/>
<path d="M235.268 222.677H3.3215C2.88492 222.678 2.45246 222.592 2.04889 222.426C1.64532 222.259 1.27855 222.015 0.969574 221.706C0.660593 221.398 0.415479 221.031 0.24823 220.628C0.0809806 220.225 -0.00512695 219.793 -0.00512695 219.356C-0.00512695 218.919 0.0809806 218.487 0.24823 218.084C0.415479 217.681 0.660593 217.314 0.969574 217.006C1.27855 216.697 1.64532 216.453 2.04889 216.286C2.45246 216.12 2.88492 216.034 3.3215 216.035H235.268C236.148 216.037 236.991 216.387 237.613 217.01C238.234 217.632 238.583 218.476 238.583 219.356C238.583 220.236 238.234 221.08 237.613 221.702C236.991 222.325 236.148 222.675 235.268 222.677Z" fill="#F2F2F2"/>
<path d="M235.273 246.391H3.31619C2.43576 246.392 1.59193 246.743 0.96991 247.366C0.34789 247.989 -0.00146484 248.834 -0.00146484 249.714C-0.00146484 250.594 0.34789 251.439 0.96991 252.062C1.59193 252.685 2.43576 253.036 3.31619 253.037H235.273C236.153 253.036 236.997 252.685 237.619 252.062C238.241 251.439 238.59 250.594 238.59 249.714C238.59 248.834 238.241 247.989 237.619 247.366C236.997 246.743 236.153 246.392 235.273 246.391Z" fill="#F2F2F2"/>
<path d="M235.268 283.398H3.32135C2.4406 283.398 1.59593 283.048 0.973145 282.425C0.350362 281.802 0.000488281 280.958 0.000488281 280.077C0.000488281 279.196 0.350362 278.352 0.973145 277.729C1.59593 277.106 2.4406 276.756 3.32135 276.756H235.268C236.149 276.756 236.993 277.106 237.616 277.729C238.239 278.352 238.589 279.196 238.589 280.077C238.589 280.958 238.239 281.802 237.616 282.425C236.993 283.048 236.149 283.398 235.268 283.398Z" fill="#F2F2F2"/>
<path d="M430.582 548.714L419.933 548.713L414.868 507.64L430.584 507.641L430.582 548.714Z" fill="#A0616A"/>
<path d="M430.957 559.823L398.211 559.822V559.408C398.211 556.027 399.554 552.786 401.944 550.396C404.334 548.005 407.576 546.662 410.956 546.662L416.939 542.125L428.099 546.663L430.957 546.663L430.957 559.823Z" fill="#2F2E41"/>
<path d="M537.725 548.714L527.077 548.713L522.011 507.64L537.728 507.641L537.725 548.714Z" fill="#A0616A"/>
<path d="M538.1 559.823L505.354 559.822V559.408C505.355 556.027 506.698 552.786 509.088 550.396C511.478 548.005 514.72 546.662 518.1 546.662L524.082 542.125L535.242 546.663L538.101 546.663L538.1 559.823Z" fill="#2F2E41"/>
<path d="M439.27 312.748C439.27 312.748 432.277 320.17 431.981 324.986C431.686 329.801 435.33 321.054 431.686 329.801C428.042 338.547 428.042 332.716 428.042 338.547C428.042 344.378 420.319 350.072 420.319 350.072L407.585 402.464L414.922 525.138H430.957C445.859 479.713 452.792 444.635 444.806 428.927L467.074 379.432C467.074 379.432 509.153 511.101 510.871 512.653C512.59 514.205 512.59 512.018 512.59 514.204C512.59 516.391 510.404 514.205 512.59 516.391L522.795 526.595L538.101 525.138C538.101 525.138 540.149 429.808 523.09 413.332C523.09 413.332 527.03 362.313 523.09 362.457C519.15 362.6 519.15 369.16 519.15 362.6C519.15 356.04 523.819 354.29 523.819 354.29L510.699 308.212L439.27 312.748Z" fill="#2F2E41"/>
<path d="M521.892 211.185L507.072 273.235L510.572 296.315L514.772 323.965L500.252 323.025L477.782 321.565L436.062 318.865L432.412 196.415L451.552 176.415L454.972 166.705L482.642 166.535L489.262 178.195L506.282 183.035C508.47 184.423 510.525 186.01 512.422 187.775C516.622 191.665 520.342 196.605 522.082 201.665C522.607 203.14 522.939 204.675 523.072 206.235L521.892 211.185Z" fill="#E6E6E6"/>
<path d="M393.094 368.622C394.209 368.006 395.177 367.155 395.931 366.128C396.685 365.101 397.206 363.922 397.46 362.674C397.713 361.425 397.692 360.137 397.399 358.897C397.105 357.657 396.546 356.496 395.759 355.494L416.866 317.068L407.673 308.617L382.938 354.439C381.349 355.889 380.348 357.87 380.122 360.009C379.897 362.147 380.465 364.294 381.716 366.042C382.968 367.79 384.818 369.019 386.915 369.494C389.012 369.97 391.211 369.66 393.094 368.622Z" fill="#E6E6E6"/>
<path d="M444.574 188.929L439.654 277.064L415.951 332.45L400.524 352.909L402.278 343.639L391.644 338.318L390.645 337.822L411.061 258.594L412.941 227.807C413.265 222.509 414.686 217.335 417.112 212.614C419.538 207.893 422.918 203.727 427.037 200.379L438.845 190.788L444.574 188.929Z" fill="#E6E6E6"/>
<path d="M393.094 368.622C394.209 368.006 395.177 367.155 395.931 366.128C396.685 365.101 397.206 363.922 397.46 362.674C397.713 361.425 397.692 360.137 397.399 358.897C397.105 357.657 396.546 356.496 395.759 355.494L416.866 317.068L407.673 308.617L382.938 354.439C381.349 355.889 380.348 357.87 380.122 360.009C379.897 362.147 380.465 364.294 381.716 366.042C382.968 367.79 384.818 369.019 386.915 369.494C389.012 369.97 391.211 369.66 393.094 368.622Z" fill="#A0616A"/>
<path d="M444.574 188.929L439.654 277.064L415.951 332.45L400.524 352.909L402.278 343.639L391.644 338.318L390.645 337.822L411.061 258.594L412.941 227.807C413.265 222.509 414.686 217.335 417.112 212.614C419.538 207.893 422.918 203.727 427.037 200.379L438.845 190.788L444.574 188.929Z" fill="#E6E6E6"/>
<path d="M467.419 191.967H240.426C225.656 191.967 213.682 203.941 213.682 218.711V335.814C213.682 350.584 225.656 362.558 240.426 362.558H467.419C482.189 362.558 494.163 350.584 494.163 335.814V218.711C494.163 203.941 482.189 191.967 467.419 191.967Z" fill="white"/>
<path d="M467.419 363.558H240.426C233.071 363.55 226.019 360.624 220.817 355.423C215.616 350.221 212.69 343.169 212.682 335.814V218.711C212.69 211.356 215.616 204.304 220.817 199.102C226.019 193.901 233.071 190.975 240.426 190.967H467.419C474.775 190.975 481.827 193.901 487.028 199.102C492.229 204.304 495.155 211.356 495.163 218.711V335.814C495.155 343.169 492.229 350.221 487.028 355.422C481.827 360.624 474.775 363.549 467.419 363.558ZM240.426 192.967C233.599 192.967 227.05 195.679 222.222 200.507C217.394 205.335 214.682 211.883 214.682 218.711V262.481C214.682 288.758 225.121 313.958 243.701 332.539C262.282 351.119 287.482 361.558 313.759 361.558H467.419C474.247 361.558 480.795 358.846 485.623 354.018C490.451 349.19 493.163 342.642 493.163 335.814V218.711C493.163 215.33 492.497 211.983 491.203 208.859C489.91 205.736 488.013 202.898 485.623 200.507C483.232 198.117 480.394 196.22 477.271 194.927C474.147 193.633 470.8 192.967 467.419 192.967L240.426 192.967Z" fill="#3F3D56"/>
<path d="M300.423 316.263H247.423C245.49 316.263 243.923 317.83 243.923 319.763C243.923 321.696 245.49 323.263 247.423 323.263H300.423C302.356 323.263 303.923 321.696 303.923 319.763C303.923 317.83 302.356 316.263 300.423 316.263Z" fill="#B71C50"/>
<path d="M460.423 306.763H423.423C421.49 306.763 419.923 308.33 419.923 310.263V329.263C419.923 331.196 421.49 332.763 423.423 332.763H460.423C462.356 332.763 463.923 331.196 463.923 329.263V310.263C463.923 308.33 462.356 306.763 460.423 306.763Z" fill="#B71C50"/>
<path d="M261.923 257.762C271.864 257.762 279.923 249.704 279.923 239.762C279.923 229.821 271.864 221.762 261.923 221.762C251.981 221.762 243.923 229.821 243.923 239.762C243.923 249.704 251.981 257.762 261.923 257.762Z" fill="#B71C50"/>
<path d="M467.797 161.381C480.279 161.381 490.398 151.262 490.398 138.78C490.398 126.297 480.279 116.178 467.797 116.178C455.314 116.178 445.195 126.297 445.195 138.78C445.195 151.262 455.314 161.381 467.797 161.381Z" fill="#A0616A"/>
<path d="M486.339 150.462C486.515 151.812 484.072 151.955 483.521 150.71C482.971 149.464 483.685 148.053 484.38 146.882L485.992 144.163C486.296 143.651 486.472 143.074 486.508 142.479C486.543 141.885 486.436 141.291 486.195 140.747C485.955 140.202 485.587 139.723 485.124 139.35C484.66 138.976 484.114 138.719 483.531 138.599C485.007 135.281 483.406 131.139 480.466 129.007C477.527 126.876 473.153 130.864 469.587 131.549C466.021 132.233 463.166 129.503 459.915 131.121L461.868 126.619L451.058 131.277L453.57 126.212C450.841 126.361 449.68 129.684 449.136 132.361C448.557 135.214 447.037 138.781 443.935 138.19C443.2 138.026 442.525 137.657 441.99 137.127C441.455 136.596 441.08 135.926 440.909 135.192C438.513 125.951 445.471 115.848 454.694 114.227C455.681 111.504 457.514 109.168 459.924 107.561C462.334 105.955 465.196 105.163 468.089 105.301C470.982 105.438 473.756 106.499 476.002 108.327C478.249 110.155 479.852 112.655 480.575 115.459L483.599 111.757L484.189 117.003C486.362 116.772 488.415 118.306 489.472 120.22C490.528 122.133 490.029 124.603 491.043 126.539C495.587 135.216 494.084 144.985 487.066 151.64" fill="#2F2E41"/>
<path d="M565.609 544.698C566.074 544.719 566.534 544.597 566.928 544.348C567.321 544.099 567.628 543.736 567.807 543.306C567.987 542.877 568.03 542.403 567.931 541.948C567.832 541.494 567.596 541.08 567.254 540.765L567.099 540.146C567.119 540.097 567.14 540.047 567.16 539.998C567.629 538.892 568.413 537.949 569.416 537.287C570.418 536.626 571.594 536.275 572.795 536.28C573.996 536.284 575.169 536.643 576.167 537.312C577.164 537.981 577.942 538.93 578.402 540.04C580.24 544.468 582.581 548.904 583.158 553.586C583.411 555.655 583.304 557.753 582.841 559.786C587.16 550.366 589.402 540.128 589.416 529.765C589.417 527.165 589.273 524.567 588.984 521.982C588.745 519.864 588.413 517.76 587.989 515.672C585.674 504.341 580.705 493.72 573.489 484.683C569.996 482.777 567.172 479.846 565.396 476.286C564.752 475.006 564.298 473.64 564.046 472.23C564.44 472.282 565.531 466.281 565.234 465.913C565.783 465.08 566.766 464.666 567.366 463.853C570.348 459.809 574.457 460.515 576.602 466.01C581.184 468.323 581.229 472.158 578.417 475.847C576.628 478.194 576.382 481.369 574.813 483.882C574.974 484.088 575.142 484.289 575.304 484.495C578.255 488.291 580.828 492.366 582.985 496.664C582.46 491.849 583.086 486.979 584.811 482.454C586.559 478.237 589.836 474.685 592.722 471.039C593.485 470.06 594.521 469.329 595.7 468.938C596.879 468.548 598.146 468.515 599.343 468.845C600.54 469.175 601.613 469.853 602.425 470.792C603.237 471.731 603.752 472.89 603.906 474.123C603.912 474.176 603.917 474.23 603.923 474.284C603.494 474.525 603.075 474.782 602.664 475.054C602.149 475.398 601.749 475.891 601.518 476.466C601.287 477.042 601.235 477.673 601.369 478.279C601.503 478.884 601.817 479.435 602.27 479.859C602.722 480.283 603.292 480.561 603.905 480.655L603.968 480.665C603.815 482.21 603.546 483.741 603.161 485.244C606.863 499.56 598.871 504.774 587.459 505.009C587.207 505.138 586.962 505.267 586.71 505.39C588.877 511.53 590.236 517.926 590.753 524.417C591.046 528.247 591.029 532.094 590.702 535.921L590.721 535.785C591.548 531.53 593.818 527.69 597.148 524.915C602.093 520.852 609.08 519.356 614.416 516.091C614.983 515.726 615.642 515.532 616.316 515.53C616.99 515.529 617.65 515.72 618.219 516.081C618.788 516.442 619.241 516.959 619.526 517.57C619.811 518.18 619.916 518.86 619.827 519.528L619.805 519.67C619.01 519.994 618.236 520.367 617.487 520.788C617.058 521.029 616.638 521.286 616.228 521.557C615.712 521.902 615.313 522.394 615.081 522.97C614.85 523.545 614.799 524.177 614.933 524.783C615.067 525.388 615.381 525.939 615.833 526.363C616.286 526.787 616.856 527.065 617.469 527.159L617.532 527.169C617.577 527.175 617.616 527.182 617.661 527.188C616.302 530.433 614.395 533.42 612.022 536.018C609.708 548.515 599.766 549.7 589.132 546.061H589.126C587.959 551.131 586.268 556.067 584.081 560.787H566.061C565.996 560.587 565.938 560.38 565.88 560.18C567.548 560.285 569.223 560.185 570.866 559.883C569.529 558.243 568.192 556.589 566.855 554.949C566.826 554.918 566.798 554.885 566.771 554.852C566.093 554.012 565.409 553.179 564.73 552.339L564.73 552.338C564.694 549.764 564.99 547.196 565.609 544.698Z" fill="#F2F2F2"/>
<path d="M287.058 560.841C287.058 560.997 287.088 561.152 287.148 561.297C287.207 561.441 287.295 561.573 287.406 561.683C287.516 561.794 287.648 561.882 287.792 561.941C287.937 562.001 288.092 562.031 288.248 562.031H618.538C618.854 562.031 619.156 561.905 619.38 561.682C619.603 561.459 619.728 561.156 619.728 560.841C619.728 560.525 619.603 560.223 619.38 559.999C619.156 559.776 618.854 559.651 618.538 559.651H288.248C288.092 559.65 287.937 559.681 287.792 559.74C287.648 559.8 287.516 559.888 287.406 559.998C287.295 560.109 287.207 560.24 287.148 560.385C287.088 560.53 287.058 560.684 287.058 560.841Z" fill="#CCCCCC"/>
<path d="M477.423 363.274C478.515 362.618 479.452 361.733 480.169 360.68C480.886 359.627 481.365 358.431 481.574 357.174C481.783 355.917 481.716 354.63 481.379 353.402C481.041 352.173 480.441 351.033 479.62 350.059L499.348 310.908L489.86 302.788L466.769 349.461C465.233 350.965 464.302 352.981 464.153 355.126C464.004 357.271 464.647 359.397 465.96 361.099C467.274 362.802 469.166 363.964 471.278 364.365C473.391 364.765 475.577 364.377 477.423 363.274Z" fill="#A0616A"/>
<path d="M522.082 201.665L523.072 206.235L520.702 270.115L510.572 296.315L500.252 323.025L498.982 326.315L484.292 347.305L485.712 337.975L474.892 333.035L473.882 332.585L477.782 321.565L486.752 296.245L490.632 285.285L491.472 252.675L492.252 221.845C492.388 216.539 493.623 211.319 495.88 206.515C498.136 201.711 501.365 197.427 505.362 193.935L512.422 187.775C516.622 191.665 520.342 196.605 522.082 201.665Z" fill="#E6E6E6"/>
<path d="M286.072 361.247L239.194 360.247C233.363 360.239 227.773 357.918 223.65 353.794C219.528 349.67 217.209 344.079 217.202 338.247L215.202 289.235C220.958 329.193 243.078 354.54 286.072 361.247Z" fill="#B71C50"/>
</g>
<defs>
<clipPath id="clip0_621_2">
<rect width="619.868" height="562.031" fill="white"/>
</clipPath>
</defs>
</svg>
