<svg width="849" height="470" viewBox="0 0 849 470" fill="none" xmlns="http://www.w3.org/2000/svg">
<g clip-path="url(#clip0_749_6)">
<path d="M436.703 467.04C423.287 469.016 409.708 469.673 396.163 469C363.503 467.35 331.383 457.85 303.933 439.99C291.763 432.07 280.153 422.34 273.853 409.27C265.303 391.52 268.293 369.05 280.503 353.59C284.957 348.014 290.435 343.34 296.643 339.82C297.563 339.3 298.503 338.8 299.453 338.32C309.798 333.118 321.417 330.991 332.933 332.19C352.513 334.33 370.583 346.29 381.023 363C390.323 377.9 393.563 395.48 395.473 413.1C395.833 416.42 396.143 419.75 396.443 423.06C394.779 432.65 392.163 442.05 388.633 451.12C388.454 451.562 388.307 452.017 388.193 452.48C390.193 456.82 392.097 461.2 393.903 465.62C395.601 466.542 397.502 467.023 399.433 467.02H436.623L436.703 467.04Z" fill="#F2F2F2"/>
<path d="M393.133 467.89C392.886 468 392.62 468.06 392.35 468.066C392.08 468.072 391.812 468.025 391.561 467.926C391.309 467.827 391.08 467.68 390.887 467.491C390.693 467.303 390.539 467.078 390.433 466.83C390.273 466.45 390.123 466.07 389.963 465.69C388.523 462.19 387.013 458.723 385.433 455.29C365.205 410.984 335.033 371.94 297.263 341.19C297.046 341.038 296.875 340.831 296.766 340.59C296.657 340.349 296.614 340.083 296.643 339.82C296.698 339.519 296.82 339.234 297.001 338.986C297.181 338.739 297.415 338.535 297.686 338.391C297.956 338.247 298.255 338.165 298.561 338.153C298.867 338.141 299.172 338.198 299.453 338.32C299.604 338.388 299.745 338.476 299.873 338.58C316.033 351.742 330.858 366.463 344.133 382.53C357.411 398.582 369.102 415.883 379.043 434.19C381.753 439.19 384.326 444.26 386.763 449.4C387.243 450.42 387.723 451.45 388.193 452.48C390.193 456.82 392.096 461.2 393.903 465.62C393.933 465.69 393.963 465.77 393.993 465.84C394.085 466.029 394.136 466.236 394.142 466.446C394.147 466.656 394.108 466.866 394.027 467.06C393.945 467.254 393.824 467.428 393.669 467.571C393.515 467.714 393.332 467.823 393.133 467.89Z" fill="white"/>
<path d="M260.503 336C282.042 336 299.503 318.539 299.503 297C299.503 275.461 282.042 258 260.503 258C238.964 258 221.503 275.461 221.503 297C221.503 318.539 238.964 336 260.503 336Z" fill="#B71C50"/>
<path d="M256.637 311.878C255.76 311.879 254.906 311.596 254.204 311.069L254.16 311.037L244.995 304.019C244.57 303.694 244.214 303.289 243.946 302.826C243.678 302.363 243.504 301.852 243.433 301.321C243.363 300.791 243.398 300.252 243.536 299.735C243.674 299.219 243.912 298.734 244.238 298.309C244.563 297.885 244.969 297.529 245.432 297.261C245.895 296.993 246.406 296.819 246.936 296.749C247.467 296.679 248.006 296.714 248.522 296.852C249.039 296.991 249.524 297.229 249.948 297.555L255.884 302.107L269.914 283.811C270.239 283.387 270.645 283.031 271.108 282.763C271.571 282.496 272.082 282.322 272.612 282.252C273.142 282.182 273.681 282.217 274.197 282.355C274.714 282.493 275.198 282.732 275.622 283.057L275.535 283.176L275.625 283.059C276.481 283.717 277.041 284.688 277.182 285.758C277.323 286.828 277.034 287.911 276.378 288.768L259.877 310.289C259.495 310.784 259.004 311.186 258.443 311.461C257.881 311.737 257.263 311.879 256.637 311.878Z" fill="white"/>
<path d="M847.485 469.443H1.19066C0.875467 469.442 0.573504 469.316 0.350952 469.093C0.1284 468.87 0.00341797 468.567 0.00341797 468.252C0.00341797 467.937 0.1284 467.635 0.350952 467.411C0.573504 467.188 0.875467 467.062 1.19066 467.062H847.485C847.8 467.062 848.102 467.188 848.324 467.411C848.547 467.635 848.672 467.937 848.672 468.252C848.672 468.567 848.547 468.87 848.324 469.093C848.102 469.316 847.8 469.442 847.485 469.443Z" fill="#3F3D56"/>
<path d="M165.546 135.945C181.529 135.945 194.486 122.988 194.486 107.005C194.486 91.0218 181.529 78.0649 165.546 78.0649C149.563 78.0649 136.606 91.0218 136.606 107.005C136.606 122.988 149.563 135.945 165.546 135.945Z" fill="#2F2E41"/>
<path d="M142.957 91.4014C147.633 86.7248 148.581 80.0903 145.074 76.5829C141.566 73.0754 134.932 74.0232 130.255 78.6998C125.579 83.3764 124.631 90.0108 128.138 93.5183C131.646 97.0257 138.28 96.0779 142.957 91.4014Z" fill="#2F2E41"/>
<path d="M195.709 82.2109C197.657 77.6494 194.306 71.8454 188.224 69.2474C182.142 66.6494 175.632 68.2411 173.684 72.8026C171.735 77.3642 175.086 83.1681 181.168 85.7662C187.25 88.3642 193.76 86.7725 195.709 82.2109Z" fill="#2F2E41"/>
<path d="M246.132 274.087C246.863 272.697 247.28 271.164 247.355 269.595C247.429 268.026 247.159 266.46 246.563 265.007C245.967 263.554 245.059 262.25 243.904 261.185C242.75 260.121 241.375 259.323 239.879 258.847L198.062 170.388L178.935 183.801L226.053 266.536C225.421 269.103 225.752 271.814 226.984 274.153C228.216 276.493 230.263 278.299 232.738 279.23C235.213 280.16 237.944 280.151 240.412 279.203C242.881 278.255 244.916 276.435 246.132 274.087Z" fill="#895E6C"/>
<path d="M207.652 185.146L185.443 195.077C184.812 195.36 184.126 195.503 183.434 195.497C182.742 195.49 182.059 195.335 181.432 195.041C180.806 194.747 180.25 194.322 179.802 193.794C179.355 193.266 179.026 192.647 178.839 191.981L172.29 168.628C170.863 165.387 170.779 161.712 172.057 158.409C173.335 155.106 175.871 152.445 179.108 151.009C182.345 149.573 186.02 149.479 189.326 150.748C192.633 152.016 195.301 154.545 196.746 157.778L209.747 178.16C210.119 178.744 210.361 179.401 210.457 180.086C210.552 180.772 210.498 181.47 210.299 182.133C210.101 182.796 209.761 183.408 209.304 183.928C208.847 184.448 208.284 184.864 207.652 185.146Z" fill="#CCCCCC"/>
<path d="M105.085 282.857C106.614 282.502 108.048 281.815 109.284 280.846C110.519 279.877 111.528 278.649 112.238 277.248C112.947 275.847 113.341 274.307 113.392 272.737C113.442 271.168 113.148 269.606 112.529 268.162L152.132 178.69L129.477 172.984L97.6729 262.727C95.3166 263.926 93.4822 265.949 92.5173 268.411C91.5524 270.872 91.5241 273.603 92.4377 276.084C93.3513 278.565 95.1433 280.625 97.4743 281.873C99.8052 283.122 102.513 283.472 105.085 282.857Z" fill="#895E6C"/>
<path d="M94.2891 445.033L105.809 449.227L127.47 406.789L110.467 400.599L94.2891 445.033Z" fill="#895E6C"/>
<path d="M124.131 468.014L87.9258 454.831L93.019 440.843L115.236 448.932C118.946 450.283 121.967 453.052 123.636 456.631C125.304 460.209 125.482 464.304 124.131 468.014Z" fill="#2F2E41"/>
<path d="M121.538 420.611C120.831 420.611 120.133 420.454 119.494 420.152L106.255 413.881C105.169 413.372 104.314 412.474 103.857 411.366C103.4 410.257 103.375 409.018 103.786 407.891L141.15 304.423C141.459 303.566 142.006 302.815 142.725 302.256C143.444 301.697 144.308 301.353 145.214 301.265C146.121 301.177 147.034 301.348 147.848 301.758C148.662 302.168 149.342 302.8 149.811 303.582L169.573 336.519C170.013 337.253 170.249 338.09 170.259 338.946C170.268 339.801 170.049 340.644 169.625 341.387L125.738 418.189C125.313 418.926 124.7 419.539 123.963 419.964C123.226 420.389 122.389 420.612 121.538 420.611Z" fill="#2F2E41"/>
<path d="M166.464 138.475C180.029 138.475 191.025 127.478 191.025 113.914C191.025 100.349 180.029 89.3525 166.464 89.3525C152.899 89.3525 141.903 100.349 141.903 113.914C141.903 127.478 152.899 138.475 166.464 138.475Z" fill="#895E6C"/>
<path d="M201.211 225.583L157.723 213.623L134.593 167.365C133.482 165.142 132.957 162.673 133.069 160.191C133.181 157.709 133.925 155.296 135.231 153.183C136.537 151.069 138.362 149.325 140.532 148.115C142.703 146.905 145.146 146.27 147.631 146.27H182.23C185.821 146.268 189.287 147.593 191.96 149.991C201.241 158.306 220.741 182.276 201.399 225.165L201.211 225.583Z" fill="#CCCCCC"/>
<path d="M146.771 194.692L124.737 184.378C124.11 184.085 123.554 183.66 123.106 183.132C122.658 182.604 122.33 181.986 122.142 181.32C121.955 180.653 121.913 179.954 122.02 179.271C122.128 178.587 122.381 177.934 122.763 177.357L136.153 157.134C137.673 153.935 140.399 151.47 143.734 150.278C147.069 149.086 150.74 149.265 153.943 150.776C157.146 152.287 159.619 155.006 160.82 158.337C162.022 161.668 161.853 165.34 160.351 168.547L153.427 191.71C153.229 192.374 152.89 192.986 152.433 193.506C151.977 194.027 151.413 194.442 150.782 194.725C150.15 195.008 149.465 195.152 148.772 195.146C148.08 195.14 147.397 194.985 146.771 194.692Z" fill="#CCCCCC"/>
<path d="M173.428 456.629H185.687L191.52 409.341L173.425 409.342L173.428 456.629Z" fill="#895E6C"/>
<path d="M209.332 468.012L170.801 468.013L170.8 453.127L194.444 453.126C198.392 453.125 202.179 454.694 204.971 457.485C207.763 460.277 209.331 464.063 209.332 468.012Z" fill="#2F2E41"/>
<path d="M178.057 438.609C176.954 438.611 175.885 438.232 175.03 437.537C174.174 436.843 173.584 435.874 173.359 434.795C169.835 418.191 151.533 333.143 137.248 289.336C122.714 244.766 147.466 224.464 152.576 220.848C153.12 220.463 153.552 219.941 153.828 219.335L157.541 211.169C157.926 210.326 158.545 209.611 159.324 209.11C160.104 208.609 161.011 208.342 161.938 208.342H161.968C189.796 208.508 199.152 217.281 201.882 221.045C202.285 221.606 202.561 222.247 202.691 222.925C202.821 223.603 202.802 224.301 202.636 224.971L185.028 297.616C184.919 298.066 184.894 298.533 184.955 298.993L202.474 430.893C202.558 431.527 202.515 432.171 202.347 432.788C202.18 433.405 201.891 433.983 201.498 434.488C201.105 434.992 200.616 435.413 200.058 435.727C199.5 436.04 198.886 436.239 198.251 436.313L178.622 438.577C178.435 438.598 178.246 438.609 178.057 438.609Z" fill="#2F2E41"/>
<path d="M140.656 98.4643C146.268 102.333 152.93 104.391 159.746 104.364C157.315 106.05 154.547 107.189 151.633 107.702C160.696 109.646 170.063 109.699 179.147 107.857C181.166 107.533 183.114 106.864 184.907 105.879C185.8 105.38 186.578 104.699 187.19 103.88C187.803 103.06 188.236 102.121 188.462 101.124C189.065 97.6753 186.378 94.5423 183.586 92.4308C179.31 89.2472 174.381 87.0538 169.153 86.0093C163.926 84.9647 158.532 85.0952 153.361 86.3911C149.985 87.2638 146.603 88.7384 144.41 91.4498C142.217 94.1612 141.567 98.3413 143.657 101.133L140.656 98.4643Z" fill="#2F2E41"/>
<path d="M591.503 205C598.683 205 604.503 199.18 604.503 192C604.503 184.82 598.683 179 591.503 179C584.323 179 578.503 184.82 578.503 192C578.503 199.18 584.323 205 591.503 205Z" fill="#B71C50"/>
<path d="M590.215 196.959C589.922 196.96 589.637 196.865 589.403 196.69L589.389 196.679L586.334 194.34C586.192 194.232 586.073 194.096 585.983 193.942C585.893 193.788 585.835 193.617 585.811 193.44C585.788 193.263 585.799 193.083 585.845 192.911C585.891 192.738 585.971 192.577 586.079 192.435C586.188 192.293 586.323 192.174 586.478 192.085C586.632 191.996 586.803 191.938 586.98 191.915C587.157 191.891 587.337 191.903 587.509 191.95C587.682 191.996 587.843 192.076 587.985 192.185L589.964 193.702L594.64 187.604C594.748 187.462 594.884 187.344 595.038 187.254C595.192 187.165 595.363 187.107 595.539 187.084C595.716 187.061 595.896 187.072 596.068 187.118C596.24 187.164 596.402 187.244 596.543 187.352C596.828 187.572 597.016 187.896 597.063 188.253C597.11 188.609 597.014 188.97 596.795 189.256L591.294 196.43C591.167 196.595 591.004 196.729 590.816 196.82C590.629 196.912 590.423 196.96 590.215 196.959Z" fill="white"/>
<path d="M591.503 243C598.683 243 604.503 237.18 604.503 230C604.503 222.82 598.683 217 591.503 217C584.323 217 578.503 222.82 578.503 230C578.503 237.18 584.323 243 591.503 243Z" fill="#B71C50"/>
<path d="M590.215 234.959C589.922 234.96 589.637 234.865 589.403 234.69L589.389 234.679L586.334 232.34C586.192 232.232 586.073 232.096 585.983 231.942C585.893 231.788 585.835 231.617 585.811 231.44C585.788 231.263 585.799 231.083 585.845 230.911C585.891 230.738 585.971 230.577 586.079 230.435C586.188 230.293 586.323 230.174 586.478 230.085C586.632 229.996 586.803 229.938 586.98 229.915C587.157 229.891 587.337 229.903 587.509 229.95C587.682 229.996 587.843 230.076 587.985 230.185L589.964 231.702L594.64 225.604C594.748 225.462 594.884 225.344 595.038 225.254C595.192 225.165 595.363 225.107 595.539 225.084C595.716 225.061 595.896 225.072 596.068 225.118C596.24 225.164 596.402 225.244 596.543 225.352C596.828 225.572 597.016 225.896 597.063 226.253C597.11 226.609 597.014 226.97 596.795 227.256L591.294 234.43C591.167 234.595 591.004 234.729 590.816 234.82C590.629 234.912 590.423 234.96 590.215 234.959Z" fill="white"/>
<path d="M598.503 287C605.683 287 611.503 281.18 611.503 274C611.503 266.82 605.683 261 598.503 261C591.323 261 585.503 266.82 585.503 274C585.503 281.18 591.323 287 598.503 287Z" fill="#B71C50"/>
<path d="M597.215 278.959C596.922 278.96 596.637 278.865 596.403 278.69L596.389 278.679L593.334 276.34C593.192 276.232 593.073 276.096 592.983 275.942C592.893 275.788 592.835 275.617 592.811 275.44C592.788 275.263 592.799 275.083 592.845 274.911C592.891 274.738 592.971 274.577 593.079 274.435C593.188 274.293 593.323 274.174 593.478 274.085C593.632 273.996 593.803 273.938 593.98 273.915C594.157 273.891 594.337 273.903 594.509 273.95C594.682 273.996 594.843 274.076 594.985 274.185L596.964 275.702L601.64 269.604C601.748 269.462 601.884 269.344 602.038 269.254C602.192 269.165 602.363 269.107 602.539 269.084C602.716 269.061 602.896 269.072 603.068 269.118C603.24 269.164 603.402 269.244 603.543 269.352C603.828 269.572 604.016 269.896 604.063 270.253C604.11 270.609 604.014 270.97 603.795 271.256L598.294 278.43C598.167 278.595 598.004 278.729 597.816 278.82C597.629 278.912 597.423 278.96 597.215 278.959Z" fill="white"/>
<path d="M723.859 382.539C723.724 382.539 723.639 382.536 723.61 382.534L707.47 382.536V380.156H723.668C724.043 380.17 731.695 380.386 738.745 371.831C749.25 359.082 757.878 327.522 739.317 249.567C714.36 144.747 735.176 52.1437 745.283 17.1953C745.781 15.4663 745.87 13.6451 745.543 11.8757C745.217 10.1063 744.483 8.43721 743.4 7.00021C742.317 5.5632 740.915 4.3977 739.304 3.5958C737.693 2.7939 735.918 2.37759 734.119 2.37972H493.085C491.252 2.38218 489.446 2.81667 487.813 3.64796C486.18 4.47924 484.765 5.68388 483.685 7.1641C479.403 13.0541 473.527 24.3693 469.85 44.8291L467.508 44.4085C471.265 23.5042 477.332 11.8561 481.76 5.76508C483.062 3.98149 484.765 2.52993 486.733 1.52824C488.701 0.526545 490.877 0.00296261 493.085 6.47662e-06H734.119C736.287 -0.00208019 738.426 0.500081 740.367 1.46682C742.308 2.43356 743.997 3.83838 745.302 5.5703C746.607 7.30223 747.49 9.31379 747.884 11.4461C748.277 13.5784 748.17 15.773 747.569 17.8565C737.514 52.6235 716.806 144.746 741.633 249.017C760.454 328.067 751.406 360.312 740.501 373.441C733.309 382.101 725.384 382.539 723.859 382.539Z" fill="#E6E6E6"/>
<path d="M680.429 425.969C680.295 425.969 680.21 425.966 680.18 425.964L664.041 425.966V423.586H680.239C680.616 423.598 688.265 423.815 695.315 415.261C705.821 402.512 714.448 370.951 695.888 292.997C670.931 188.177 691.746 95.5733 701.854 60.625C702.352 58.896 702.441 57.0748 702.114 55.3054C701.787 53.536 701.053 51.8669 699.97 50.4299C698.887 48.9929 697.485 47.8274 695.874 47.0255C694.264 46.2236 692.489 45.8073 690.689 45.8094H449.655C447.822 45.8119 446.016 46.2464 444.383 47.0776C442.75 47.9089 441.336 49.1136 440.256 50.5938C435.974 56.4838 430.098 67.799 426.421 88.2588L424.079 87.8382C427.835 66.9339 433.903 55.2858 438.331 49.1948C439.632 47.4112 441.336 45.9596 443.303 44.9579C445.271 43.9562 447.447 43.4327 449.655 43.4297H690.689C692.858 43.4276 694.997 43.9298 696.938 44.8965C698.878 45.8633 700.568 47.2681 701.872 49C703.177 50.7319 704.061 52.7435 704.454 54.8758C704.848 57.0081 704.74 59.2027 704.14 61.2862C694.084 96.0532 673.377 188.176 698.203 292.446C717.025 371.497 707.976 403.741 697.072 416.871C689.879 425.531 681.955 425.969 680.429 425.969Z" fill="#CCCCCC"/>
<path d="M654.773 335.88C629.943 231.61 650.653 139.48 660.713 104.72C661.312 102.636 661.419 100.442 661.025 98.3102C660.63 96.1783 659.746 94.1671 658.442 92.4353C657.138 90.7035 655.449 89.2984 653.509 88.3308C651.569 87.3633 649.431 86.8597 647.263 86.8599H406.223C404.016 86.862 401.841 87.3848 399.874 88.3856C397.907 89.3864 396.204 90.8371 394.903 92.6199C385.173 106 364.983 150.37 387.533 273.14C399.593 338.82 399.413 383.6 395.473 413.1C393.263 429.71 389.853 441.47 386.763 449.4L386.433 450.24C385.782 451.845 385.443 453.558 385.433 455.29C385.41 457.245 385.802 459.183 386.583 460.976C387.364 462.768 388.516 464.375 389.963 465.69C390.906 466.574 391.974 467.315 393.133 467.89C394.095 468.381 395.112 468.753 396.163 469C397.233 469.261 398.331 469.392 399.433 469.39H636.753C636.783 469.39 636.863 469.4 637.003 469.4C638.523 469.4 646.453 468.96 653.643 460.3C664.543 447.17 673.593 414.93 654.773 335.88ZM651.883 458.69C644.833 467.25 637.183 467.03 636.813 467.02H399.433C397.533 467.019 395.661 466.553 393.982 465.662C392.304 464.772 390.869 463.483 389.803 461.91C388.865 460.549 388.236 459.001 387.957 457.372C387.679 455.744 387.76 454.074 388.193 452.48C388.306 452.016 388.453 451.562 388.633 451.12C392.163 442.049 394.779 432.65 396.443 423.06C402.083 392.31 403.133 344.86 389.873 272.71C367.493 150.85 387.283 107.15 396.823 94.0199C397.905 92.5418 399.32 91.339 400.953 90.5087C402.586 89.6783 404.391 89.2437 406.223 89.2399H647.263C649.061 89.2386 650.835 89.6554 652.445 90.4572C654.054 91.2591 655.456 92.4241 656.538 93.8603C657.62 95.2965 658.354 96.9647 658.681 98.733C659.008 100.501 658.92 102.322 658.423 104.05C648.313 139 627.503 231.61 652.463 336.43C671.023 414.38 662.393 445.94 651.883 458.69Z" fill="#3F3D56"/>
<path d="M540.262 200.4H416.076C413.552 200.4 411.131 199.398 409.346 197.612C407.56 195.827 406.558 193.406 406.558 190.882C406.558 188.357 407.56 185.936 409.346 184.151C411.131 182.366 413.552 181.363 416.076 181.363H540.262C542.787 181.363 545.208 182.366 546.993 184.151C548.778 185.936 549.781 188.357 549.781 190.882C549.781 193.406 548.778 195.827 546.993 197.612C545.208 199.398 542.787 200.4 540.262 200.4Z" fill="#CCCCCC"/>
<path d="M540.262 241.4H416.076C413.552 241.4 411.131 240.398 409.346 238.612C407.56 236.827 406.558 234.406 406.558 231.882C406.558 229.357 407.56 226.936 409.346 225.151C411.131 223.366 413.552 222.363 416.076 222.363H540.262C542.787 222.363 545.208 223.366 546.993 225.151C548.778 226.936 549.781 229.357 549.781 231.882C549.781 234.406 548.778 236.827 546.993 238.612C545.208 240.398 542.787 241.4 540.262 241.4Z" fill="#CCCCCC"/>
<path d="M550.262 283.4H426.076C423.552 283.4 421.131 282.398 419.346 280.612C417.56 278.827 416.558 276.406 416.558 273.882C416.558 271.357 417.56 268.936 419.346 267.151C421.131 265.366 423.552 264.363 426.076 264.363H550.262C552.787 264.363 555.208 265.366 556.993 267.151C558.778 268.936 559.781 271.357 559.781 273.882C559.781 276.406 558.778 278.827 556.993 280.612C555.208 282.398 552.787 283.4 550.262 283.4Z" fill="#CCCCCC"/>
<path d="M557.262 327.4H433.076C430.552 327.4 428.131 326.397 426.346 324.612C424.56 322.827 423.558 320.406 423.558 317.882C423.558 315.357 424.56 312.936 426.346 311.151C428.131 309.366 430.552 308.363 433.076 308.363H557.262C559.787 308.363 562.208 309.366 563.993 311.151C565.778 312.936 566.781 315.357 566.781 317.882C566.781 320.406 565.778 322.827 563.993 324.612C562.208 326.397 559.787 327.4 557.262 327.4Z" fill="#CCCCCC"/>
<path d="M557.315 126.491H468.076C466.826 126.492 465.587 126.247 464.431 125.769C463.275 125.291 462.224 124.59 461.339 123.706C460.454 122.822 459.752 121.772 459.273 120.617C458.794 119.461 458.548 118.223 458.548 116.972C458.548 115.721 458.794 114.483 459.273 113.327C459.752 112.171 460.454 111.122 461.339 110.238C462.224 109.354 463.275 108.653 464.431 108.175C465.587 107.697 466.826 107.452 468.076 107.453H557.315C559.84 107.453 562.261 108.456 564.046 110.241C565.831 112.026 566.834 114.447 566.834 116.972C566.834 119.496 565.831 121.918 564.046 123.703C562.261 125.488 559.84 126.491 557.315 126.491Z" fill="#B71C50"/>
<path d="M606.503 330.881C613.683 330.881 619.503 325.061 619.503 317.881C619.503 310.702 613.683 304.881 606.503 304.881C599.323 304.881 593.503 310.702 593.503 317.881C593.503 325.061 599.323 330.881 606.503 330.881Z" fill="#CCCCCC"/>
<path d="M563.262 370.4H439.076C436.552 370.4 434.131 369.397 432.346 367.612C430.56 365.827 429.558 363.406 429.558 360.882C429.558 358.357 430.56 355.936 432.346 354.151C434.131 352.366 436.552 351.363 439.076 351.363H563.262C565.787 351.363 568.208 352.366 569.993 354.151C571.778 355.936 572.781 358.357 572.781 360.882C572.781 363.406 571.778 365.827 569.993 367.612C568.208 369.397 565.787 370.4 563.262 370.4Z" fill="#CCCCCC"/>
<path d="M612.503 373.881C619.683 373.881 625.503 368.061 625.503 360.881C625.503 353.702 619.683 347.881 612.503 347.881C605.323 347.881 599.503 353.702 599.503 360.881C599.503 368.061 605.323 373.881 612.503 373.881Z" fill="#CCCCCC"/>
</g>
<defs>
<clipPath id="clip0_749_6">
<rect width="848.675" height="469.443" fill="white"/>
</clipPath>
</defs>
</svg>
